<?xml version="1.0" encoding="iso-8859-1"?>
<!-- Generator: Adobe Illustrator 19.0.0, SVG Export Plug-In . SVG Version: 6.00 Build 0)  -->
<svg fill="currentColor" version="1.1" id="Capa_1" xmlns="http://www.w3.org/2000/svg" xmlns:xlink="http://www.w3.org/1999/xlink" x="0px" y="0px"
	 viewBox="0 0 480 480" style="enable-background:new 0 0 480 480;" xml:space="preserve">
<g>
	<g>
		<path d="M440,64h-47.024c-0.147-1.82-0.919-3.532-2.184-4.848L356.848,25.2c-3.174-3.001-8.138-3.001-11.312,0l-14.4,14.448
			c-8.546-4.859-17.661-8.643-27.136-11.264V8c0-4.418-3.582-8-8-8h-48c-4.418,0-8,3.582-8,8v20.384
			c-9.461,2.624-18.562,6.408-27.096,11.264l-14.4-14.448c-3.174-3.001-8.138-3.001-11.312,0l-33.984,33.952
			c-1.266,1.316-2.037,3.028-2.184,4.848H40C17.92,64.026,0.026,81.92,0,104v272c0.026,22.08,17.92,39.974,40,40h157.752
			l-13.512,54.064c-1.069,4.287,1.539,8.629,5.826,9.698C190.699,479.92,191.348,480,192,480h96
			c4.418-0.001,7.999-3.584,7.998-8.002c0-0.652-0.08-1.301-0.238-1.934L282.248,416H440c22.08-0.026,39.974-17.92,40-40V104
			C479.974,81.92,462.08,64.026,440,64z M183.392,78.016L170.176,64.8L192.8,42.168l13.208,13.224
			c2.661,2.668,6.823,3.118,9.992,1.08c10.315-6.638,21.731-11.385,33.712-14.016c3.672-0.804,6.289-4.057,6.288-7.816V16h32v18.64
			c-0.001,3.759,2.616,7.012,6.288,7.816c11.981,2.631,23.397,7.378,33.712,14.016c3.168,2.034,7.325,1.584,9.984-1.08L351.2,42.168
			l22.632,22.64l-13.216,13.208c-2.667,2.657-3.12,6.815-1.088,9.984c6.644,10.315,11.391,21.734,14.016,33.72
			c0.808,3.669,4.059,6.281,7.816,6.28H400v32h-18.64c-3.759-0.001-7.012,2.616-7.816,6.288c-2.626,11.983-7.373,23.4-14.016,33.712
			c-2.029,3.166-1.58,7.318,1.08,9.976l13.216,13.224L351.2,245.832l-13.208-13.224c-2.661-2.668-6.823-3.118-9.992-1.08
			c-10.315,6.638-21.731,11.385-33.712,14.016c-3.672,0.804-6.289,4.057-6.288,7.816V272h-32v-18.64
			c0.001-3.759-2.616-7.012-6.288-7.816c-8.051-1.791-15.857-4.547-23.248-8.208l2.816-1.6c3.826-2.209,5.137-7.102,2.928-10.928
			l-24-41.6c-2.209-3.826-7.102-5.137-10.928-2.928l-13.472,7.776c-2.505-1.669-5.113-3.179-7.808-4.52V168c0-4.418-3.582-8-8-8h-24
			v-32h18.64c3.759,0.001,7.012-2.616,7.816-6.288c2.626-11.983,7.373-23.4,14.016-33.712
			C186.506,84.832,186.056,80.675,183.392,78.016z M199.392,240.248c0.811,5.142,0.811,10.378,0,15.52
			c-0.435,3.217,1.117,6.377,3.928,8l11.032,6.4l-16,27.696l-11.024-6.352c-2.823-1.628-6.351-1.381-8.92,0.624
			c-4.093,3.195-8.607,5.809-13.416,7.768c-3.019,1.225-4.993,4.158-4.992,7.416V320h-32v-12.696
			c0.001-3.258-1.973-6.191-4.992-7.416c-4.809-1.959-9.323-4.573-13.416-7.768c-2.569-2.005-6.097-2.252-8.92-0.624l-11.024,6.352
			l-16-27.696l11.032-6.4c2.811-1.623,4.363-4.783,3.928-8c-0.811-5.142-0.811-10.378,0-15.52c0.435-3.217-1.117-6.377-3.928-8
			l-11.032-6.4l16-27.696l11.024,6.352c2.823,1.628,6.351,1.381,8.92-0.624c4.093-3.195,8.607-5.809,13.416-7.768
			c3.013-1.223,4.987-4.148,4.992-7.4V176h32v12.696c-0.001,3.258,1.973,6.191,4.992,7.416c4.809,1.959,9.323,4.573,13.416,7.768
			c2.569,2.005,6.097,2.252,8.92,0.624l11.024-6.352l16,27.696l-11.032,6.4C200.509,233.871,198.957,237.031,199.392,240.248z
			 M202.248,464l12-48h51.504l12,48H202.248z M464,376c0,13.255-10.745,24-24,24H40c-13.255,0-24-10.745-24-24v-8h448V376z M464,352
			H16V104c0-13.255,10.745-24,24-24h122.752l4.896,4.896c-4.859,8.535-8.642,17.639-11.264,27.104H136c-4.418,0-8,3.582-8,8v40h-8
			c-4.418,0-8,3.582-8,8v15.536c-2.695,1.344-5.303,2.856-7.808,4.528l-13.472-7.776c-3.826-2.209-8.719-0.898-10.928,2.928
			l-24,41.6c-2.209,3.826-0.898,8.719,2.928,10.928l13.448,7.768c-0.112,1.6-0.168,3.056-0.168,4.52s0.056,2.952,0.168,4.52
			L58.72,260.32c-3.798,2.208-5.105,7.065-2.928,10.88l24,41.6c2.209,3.826,7.102,5.137,10.928,2.928l13.472-7.776
			c2.505,1.672,5.113,3.184,7.808,4.528V328c0,4.418,3.582,8,8,8h48c4.418,0,8-3.582,8-8v-15.536
			c2.695-1.344,5.303-2.856,7.808-4.528l13.472,7.776c3.826,2.209,8.719,0.898,10.928-2.928l24-41.6
			c2.209-3.826,0.898-8.719-2.928-10.928l-13.448-7.768c0.064-0.88,0.064-1.696,0.096-2.544c7.646,4.096,15.718,7.339,24.072,9.672
			V280c0,4.418,3.582,8,8,8h48c4.418,0,8-3.582,8-8v-20.384c9.461-2.624,18.562-6.408,27.096-11.264l14.4,14.448
			c3.174,3.001,8.138,3.001,11.312,0l33.944-33.952c3.123-3.124,3.123-8.188,0-11.312l-14.4-14.4
			c4.861-8.545,8.645-17.66,11.264-27.136H408c4.418,0,8-3.582,8-8v-48c0-4.418-3.582-8-8-8h-20.384
			c-2.622-9.465-6.405-18.569-11.264-27.104L381.248,80H440c13.255,0,24,10.745,24,24V352z"/>
	</g>
</g>
<g>
	<g>
		<path d="M272,80c-35.346,0-64,28.654-64,64c0.04,35.33,28.67,63.96,64,64c35.346,0,64-28.654,64-64C336,108.654,307.346,80,272,80
			z M272,192c-26.51,0-48-21.49-48-48c0.026-26.499,21.501-47.974,48-48c26.51,0,48,21.49,48,48C320,170.51,298.51,192,272,192z"/>
	</g>
</g>
<g>
	<g>
		<path d="M144,208c-22.091,0-40,17.909-40,40s17.909,40,40,40c22.08-0.026,39.974-17.92,40-40C184,225.909,166.091,208,144,208z
			 M144,272c-13.255,0-24-10.745-24-24s10.745-24,24-24s24,10.745,24,24S157.255,272,144,272z"/>
	</g>
</g>
<g>
</g>
<g>
</g>
<g>
</g>
<g>
</g>
<g>
</g>
<g>
</g>
<g>
</g>
<g>
</g>
<g>
</g>
<g>
</g>
<g>
</g>
<g>
</g>
<g>
</g>
<g>
</g>
<g>
</g>
</svg>
