<?xml version="1.0" encoding="iso-8859-1"?>
<!-- Generator: Adobe Illustrator 19.0.0, SVG Export Plug-In . SVG Version: 6.00 Build 0)  -->
<svg version="1.1" id="Capa_1" xmlns="http://www.w3.org/2000/svg" xmlns:xlink="http://www.w3.org/1999/xlink" x="0px" y="0px"
	 viewBox="0 0 512 512" style="enable-background:new 0 0 512 512;" xml:space="preserve">
<g>
	<g>
		<path fill="#4580fd" d="M316.992,0.001c-107.527,0-195.008,87.481-195.008,195.008c0,37.495,10.646,72.544,29.061,102.305L13.16,435.198
			c-17.547,17.546-17.547,46.096,0,63.643c17.546,17.545,46.095,17.546,63.642,0c7.406-7.406,130.662-130.662,137.886-137.885
			c29.76,18.414,64.811,29.06,102.305,29.06C424.52,390.017,512,302.536,512,195.009S424.52,0.001,316.992,0.001z M55.588,477.627
			c-5.849,5.848-15.365,5.848-21.214,0c-5.849-5.849-5.849-15.366,0-21.215l90.717-90.717l21.214,21.214L55.588,477.627z
			 M167.519,365.697l-21.215-21.215l22.665-22.665c6.52,7.6,13.614,14.694,21.214,21.215L167.519,365.697z M316.992,360.015
			c-90.985,0-165.007-74.022-165.007-165.007S226.008,30.002,316.992,30.002s165.007,74.022,165.007,165.007
			S407.977,360.015,316.992,360.015z"/>
	</g>
</g>
<g>
	<g>
		<path fill="#FF6714" d="M361.672,160.001c9.519-10.623,15.323-24.642,15.323-39.996c0-33.085-26.917-60.003-60.002-60.003
			S256.99,86.92,256.99,120.006c0,15.354,5.803,29.372,15.323,39.996c-35.617,16.817-60.324,53.08-60.324,95.01v30.001
			c0,8.284,6.716,15.001,15.001,15.001h180.007c8.284,0,15.001-6.716,15.001-15.001v-30.001
			C421.997,213.081,397.29,176.819,361.672,160.001z M316.992,90.004c16.543,0,30.001,13.459,30.001,30.001
			c0,16.543-13.459,30.001-30.001,30.001s-30.001-13.459-30.001-30.001C286.991,103.463,300.45,90.004,316.992,90.004z
			 M391.996,270.012H241.989v-15.001c0-41.357,33.646-75.003,75.003-75.003s75.003,33.646,75.003,75.003V270.012z"/>
	</g>
</g>
<g>
</g>
<g>
</g>
<g>
</g>
<g>
</g>
<g>
</g>
<g>
</g>
<g>
</g>
<g>
</g>
<g>
</g>
<g>
</g>
<g>
</g>
<g>
</g>
<g>
</g>
<g>
</g>
<g>
</g>
</svg>
